<svg xmlns="http://www.w3.org/2000/svg" xmlns:xlink="http://www.w3.org/1999/xlink" width="139" height="139" viewBox="0 0 139 139">
  <defs>
    <filter id="楕円形_1" x="0" y="0" width="139" height="139" filterUnits="userSpaceOnUse">
      <feOffset dy="3" input="SourceAlpha"/>
      <feGaussianBlur stdDeviation="12.5" result="blur"/>
      <feFlood flood-opacity="0.161"/>
      <feComposite operator="in" in2="blur"/>
      <feComposite in="SourceGraphic"/>
    </filter>
  </defs>
  <g id="グループ_13" data-name="グループ 13" transform="translate(-249.5 -0.5)">
    <g transform="matrix(1, 0, 0, 1, 249.5, 0.5)" filter="url(#楕円形_1)">
      <circle id="楕円形_1-2" data-name="楕円形 1" cx="32" cy="32" r="32" transform="translate(37.5 34.5)" fill="#fff" opacity="0.5"/>
    </g>
    <g id="ギアアイコン" transform="translate(302.288 50.288)">
      <path id="パス_6" data-name="パス 6" d="M32.66,14.625,29.153,13.8a12.719,12.719,0,0,0-1.6-3.86l1.895-3.065A.95.95,0,0,0,29.312,5.7L27.691,4.08a.95.95,0,0,0-1.171-.136L23.455,5.838a12.717,12.717,0,0,0-3.86-1.6L18.768.732A.951.951,0,0,0,17.843,0H15.55a.95.95,0,0,0-.925.732L13.8,4.239a12.707,12.707,0,0,0-3.859,1.6L6.873,3.943A.952.952,0,0,0,5.7,4.079L4.08,5.7a.949.949,0,0,0-.136,1.171L5.838,9.937a12.714,12.714,0,0,0-1.6,3.86l-3.507.827A.952.952,0,0,0,0,15.549v2.293a.95.95,0,0,0,.732.924l3.507.828a12.718,12.718,0,0,0,1.6,3.86L3.943,26.519a.952.952,0,0,0,.136,1.172L5.7,29.312a.949.949,0,0,0,1.172.136l3.065-1.894a12.7,12.7,0,0,0,3.859,1.6l.828,3.508a.95.95,0,0,0,.925.732h2.293a.95.95,0,0,0,.924-.732l.828-3.508a12.714,12.714,0,0,0,3.859-1.6l3.065,1.895a.949.949,0,0,0,1.171-.137l1.622-1.621a.95.95,0,0,0,.136-1.171l-1.895-3.065a12.712,12.712,0,0,0,1.6-3.859l3.508-.828a.95.95,0,0,0,.732-.925V15.549A.95.95,0,0,0,32.66,14.625ZM16.7,25.475a8.779,8.779,0,1,1,8.78-8.779A8.78,8.78,0,0,1,16.7,25.475Z" fill="none" stroke="#000" stroke-width="1"/>
      <path id="パス_7" data-name="パス 7" d="M176.248,170.684a5.564,5.564,0,1,0,5.564,5.564A5.564,5.564,0,0,0,176.248,170.684Zm0,8.294a2.73,2.73,0,1,1,2.73-2.73A2.73,2.73,0,0,1,176.248,178.978Z" transform="translate(-159.552 -159.552)" fill="none" stroke="#000" stroke-width="1"/>
    </g>
  </g>
</svg>
