<svg xmlns="http://www.w3.org/2000/svg" width="30.479" height="30.479" viewBox="0 0 30.479 30.479">
  <g id="ギアアイコン" transform="translate(0.5 0.5)">
    <path id="パス_6" data-name="パス 6" d="M28.833,12.911l-3.1-.73a11.228,11.228,0,0,0-1.411-3.408L26,6.067a.839.839,0,0,0-.121-1.034L24.446,3.6a.839.839,0,0,0-1.034-.12L20.706,5.154A11.227,11.227,0,0,0,17.3,3.742l-.731-3.1A.839.839,0,0,0,15.752,0H13.727a.839.839,0,0,0-.816.646l-.731,3.1A11.218,11.218,0,0,0,8.773,5.154L6.067,3.481a.84.84,0,0,0-1.034.12L3.6,5.033a.838.838,0,0,0-.12,1.034L5.154,8.773A11.224,11.224,0,0,0,3.742,12.18l-3.1.73A.841.841,0,0,0,0,13.727v2.025a.838.838,0,0,0,.646.816l3.1.731a11.227,11.227,0,0,0,1.412,3.408L3.481,23.411a.841.841,0,0,0,.12,1.034l1.432,1.431A.838.838,0,0,0,6.067,26l2.706-1.672a11.215,11.215,0,0,0,3.407,1.411l.731,3.1a.838.838,0,0,0,.816.646h2.025a.839.839,0,0,0,.816-.646l.731-3.1a11.223,11.223,0,0,0,3.407-1.411L23.412,26a.838.838,0,0,0,1.034-.121l1.432-1.431A.839.839,0,0,0,26,23.412l-1.673-2.706A11.223,11.223,0,0,0,25.736,17.3l3.1-.731a.839.839,0,0,0,.646-.817V13.727A.838.838,0,0,0,28.833,12.911ZM14.739,22.49a7.75,7.75,0,1,1,7.751-7.75A7.751,7.751,0,0,1,14.739,22.49Z" fill="none" stroke="#000000" stroke-width="1"/>
    <path id="パス_7" data-name="パス 7" d="M175.6,170.684a4.912,4.912,0,1,0,4.912,4.912A4.912,4.912,0,0,0,175.6,170.684Zm0,7.322a2.41,2.41,0,1,1,2.41-2.41A2.41,2.41,0,0,1,175.6,178.006Z" transform="translate(-160.857 -160.857)" fill="none" stroke="#707070" stroke-width="1"/>
  </g>
</svg>
